<?xml version="1.0" encoding="utf-8"?>
<!-- Generator: Adobe Illustrator 23.0.1, SVG Export Plug-In . SVG Version: 6.00 Build 0)  -->
<svg version="1.1" id="Layer_1" xmlns="http://www.w3.org/2000/svg" xmlns:xlink="http://www.w3.org/1999/xlink" x="0px" y="0px"
	 viewBox="0 0 474.72 79.77" style="enable-background:new 0 0 474.72 79.77;" xml:space="preserve">
<style type="text/css">
	.st0{fill-rule:evenodd;clip-rule:evenodd;fill:#7E7E7E;}
	.st1{fill-rule:evenodd;clip-rule:evenodd;fill:#009346;}
	.st2{fill:#009846;}
	.st3{fill:#7E7E7E;}
</style>
<g>
	<path class="st0" d="M168.75,39.36h-7.64c0-11.13,0-22.27,0-33.4h7.64C168.75,17.09,168.75,28.23,168.75,39.36"/>
	<path class="st0" d="M264.52,33.14c1.46,0,2.22-0.6,2.26-1.79c0-0.74,0-1.64,0-2.39h-14.01c-3.1,0-3.12,4.17-0.04,4.17
		C256.66,33.14,260.59,33.14,264.52,33.14 M274.85,22.07c0-5.33-2.48-8.4-7.9-8.4h-22.78h-0.11v6.22h0.03h20.44
		c1.46,0,2.22,0.6,2.26,1.79c0,0.57,0,0.98,0,1.55h-15.95c-5.03,0-7.94,2.53-7.94,7.7c0,5.36,2.44,8.44,7.9,8.44
		c5.33,0,10.82,0,16.15,0c5.36,0,7.9-3.01,7.9-8.31C274.85,28.05,274.85,25.06,274.85,22.07z"/>
	<path class="st0" d="M230.43,33.14c3.08,0,3.07-3.86-0.04-3.86h-14.3c-4.17,0-7.8-3.53-7.8-7.78c0-4.25,3.48-7.89,7.72-7.89h23.09
		v6.26h-20.98c-0.96,0-1.75,0.95-1.75,1.91c0,0.96,0.79,1.75,1.75,1.75h0.01l14.1-0.01c0,0,0.01,0,0.01,0
		c4.42,0,8.03,3.39,8.03,7.81c0,4.41-3.61,8.03-8.03,8.03h-22.76h-0.02v-6.22h0.17H230.43z"/>
	<path class="st0" d="M184.03,19.88c-1.46,0-2.22,0.6-2.26,1.79c0,0.74,0,1.64,0,2.38h14.01c3.1,0,3.12-4.17,0.04-4.17
		C191.89,19.88,187.96,19.88,184.03,19.88 M173.7,30.96c0,5.33,2.48,8.4,7.9,8.4h22.89v-6.22h-20.46c-1.46,0-2.22-0.6-2.26-1.79
		c0-0.57,0-0.98,0-1.55h15.96c5.03,0,7.94-2.53,7.94-7.7c0-5.36-2.44-8.44-7.91-8.44c-5.33,0-10.82,0-16.15,0
		c-5.35,0-7.9,3.02-7.9,8.31C173.7,24.97,173.7,27.96,173.7,30.96z"/>
	<path class="st0" d="M98.44,23c1.59,0,3.19,0,4.78,0l8.72-9.33h9.58l-11.39,11.55l12.24,14.14h-9.6l-8.14-9.92
		c-2.06,0-4.12,0-6.19,0v9.92H90.8c0-11.13,0-22.27,0-33.4h7.63C98.44,11.64,98.44,17.32,98.44,23"/>
	<path class="st0" d="M131.09,20.38h15.64c0.73,0,1.32,0.6,1.32,1.32v10.08c0,0.73-0.59,1.32-1.32,1.32h-15.64
		c-0.73,0-1.32-0.6-1.32-1.32V21.7C129.77,20.97,130.36,20.38,131.09,20.38 M130.23,13.67h17.82c4.46,0,8.1,3.65,8.1,8.1v9.49
		c0,4.46-3.64,8.1-8.1,8.1h-17.82c-4.45,0-8.1-3.64-8.1-8.1v-9.49C122.13,17.31,125.77,13.67,130.23,13.67z"/>
	<path class="st1" d="M471.5,14.42c-0.34,0-0.66,0.06-0.95,0.19c-0.29,0.12-0.55,0.3-0.76,0.52c-0.22,0.22-0.39,0.49-0.51,0.79
		c-0.12,0.3-0.18,0.63-0.18,0.97c0,0.35,0.06,0.67,0.18,0.97c0.12,0.3,0.29,0.56,0.51,0.78c0.22,0.22,0.47,0.4,0.76,0.53
		c0.29,0.13,0.61,0.19,0.95,0.19c0.34,0,0.66-0.06,0.95-0.19c0.29-0.13,0.54-0.3,0.76-0.53c0.21-0.22,0.38-0.48,0.5-0.78
		c0.12-0.3,0.18-0.62,0.18-0.97c0-0.35-0.06-0.67-0.18-0.97c-0.12-0.3-0.29-0.57-0.5-0.79c-0.21-0.22-0.47-0.4-0.76-0.52
		C472.15,14.49,471.84,14.42,471.5,14.42 M471.5,20.09c-0.46,0-0.88-0.08-1.27-0.24c-0.39-0.16-0.73-0.39-1.01-0.67
		c-0.29-0.28-0.51-0.62-0.68-1.01c-0.16-0.39-0.25-0.82-0.25-1.27c0-0.46,0.09-0.88,0.26-1.28c0.17-0.4,0.41-0.74,0.7-1.03
		c0.29-0.29,0.63-0.51,1.02-0.68c0.39-0.16,0.8-0.25,1.22-0.25c0.46,0,0.88,0.08,1.27,0.25c0.39,0.16,0.73,0.39,1.02,0.68
		c0.29,0.29,0.51,0.63,0.68,1.03c0.16,0.4,0.25,0.82,0.25,1.28c0,0.46-0.09,0.88-0.26,1.27c-0.17,0.39-0.41,0.73-0.71,1.01
		c-0.3,0.28-0.64,0.51-1.03,0.67C472.33,20.01,471.93,20.09,471.5,20.09z M471.05,15.79v0.79h0.63c0.14,0,0.24-0.04,0.32-0.11
		c0.08-0.07,0.12-0.18,0.12-0.31c0-0.24-0.14-0.36-0.41-0.36H471.05z M471.56,17.29h-0.51v1.38h-0.76v-3.63h1.41
		c0.31,0,0.58,0.1,0.8,0.29c0.22,0.19,0.34,0.46,0.34,0.81c0,0.2-0.05,0.38-0.14,0.56c-0.09,0.17-0.24,0.32-0.44,0.45l0.68,1.52
		h-0.82L471.56,17.29z M419.86,13.67h7.64h28.84c4.45,0,8.1,3.65,8.1,8.1v17.59h-7.64V21.7c0-0.73-0.59-1.32-1.32-1.32h-9.51v18.98
		h-7.64V20.38H427.5v18.98h-7.64V13.67z M349.58,22.07c0-5.33-2.48-8.4-7.9-8.4H318.9h-0.11v6.22h0.03h20.43
		c1.46,0,2.22,0.6,2.26,1.79c0,0.56,0,0.98,0,1.55h-15.96c-5.03,0-7.94,2.53-7.94,7.7c0,5.36,2.44,8.44,7.91,8.44
		c5.33,0,10.83,0,16.15,0c5.36,0,7.9-3.02,7.9-8.31C349.58,28.05,349.58,25.06,349.58,22.07z M339.25,33.14
		c1.46,0,2.22-0.6,2.26-1.79c0-0.74,0-1.64,0-2.39H327.5c-3.1,0-3.12,4.17-0.04,4.17C331.39,33.14,335.32,33.14,339.25,33.14z
		 M288.77,20.38h15.64c0.73,0,1.32,0.59,1.32,1.32v10.08c0,0.73-0.59,1.32-1.32,1.32h-15.64c-0.73,0-1.32-0.6-1.32-1.32V21.7
		C287.45,20.97,288.04,20.38,288.77,20.38z M388.99,13.67h17.82c4.45,0,8.1,3.65,8.1,8.1v9.49c0,4.45-3.65,8.1-8.1,8.1h-17.82
		c-4.45,0-8.1-3.65-8.1-8.1v-9.49C380.89,17.31,384.53,13.67,388.99,13.67z M389.85,20.38h15.64c0.73,0,1.32,0.59,1.32,1.32v10.08
		c0,0.73-0.59,1.32-1.32,1.32h-15.64c-0.73,0-1.32-0.6-1.32-1.32V21.7C388.52,20.97,389.12,20.38,389.85,20.38z M306.19,5.96h7.64
		c0,8.43,0,16.87,0,25.3c0,4.45-3.65,8.1-8.1,8.1h-17.82c-4.45,0-8.1-3.65-8.1-8.1v-9.49c0-4.46,3.64-8.1,8.1-8.1h17.82
		c0.15,0,0.31,0.01,0.46,0.01C306.19,11.11,306.19,8.53,306.19,5.96z M362.64,13.67h13.29v6.71H363.5c-0.73,0-1.32,0.59-1.32,1.32
		v17.65h-7.64V21.77C354.54,17.31,358.18,13.67,362.64,13.67z"/>
	<path class="st2" d="M39.88,0c6.99,0,13.56,1.8,19.28,4.96L47.43,16.69c-2.38-0.77-4.92-1.19-7.55-1.19
		c-6.73,0-12.83,2.73-17.24,7.14c-4.41,4.41-7.14,10.51-7.14,17.25c0,6.74,2.73,12.83,7.14,17.25c4.41,4.41,10.51,7.14,17.24,7.14
		c6.73,0,12.83-2.73,17.24-7.14c4.41-4.41,7.14-10.51,7.14-17.25c0-2.63-0.42-5.16-1.18-7.53l11.73-11.73
		c3.15,5.71,4.95,12.28,4.95,19.26c0,11.01-4.46,20.98-11.68,28.2c-7.22,7.22-17.19,11.68-28.2,11.68
		c-11.01,0-20.98-4.46-28.2-11.68C4.46,60.87,0,50.9,0,39.89c0-11.01,4.46-20.98,11.68-28.2C18.9,4.46,28.87,0,39.88,0"/>
	<polygon class="st3" points="79.77,10.96 51.59,39.14 51.56,39.14 45.33,45.36 39.86,50.82 34.4,45.36 20.15,31.11 31.1,20.15 
		39.9,28.95 40.65,28.2 40.64,28.18 68.82,0 	"/>
</g>
</svg>
